<svg width="219" height="347" viewBox="0 0 219 347" fill="none" xmlns="http://www.w3.org/2000/svg">
<g filter="url(#filter0_d_7_20)">
<mask id="path-1-inside-1_7_20" fill="white">
<path fill-rule="evenodd" clip-rule="evenodd" d="M215 310.333L214.9 311V0.200001H137.4L109.5 174.8L82.3 0.200001H4.8V338.1H65.8V175.2L93.6 338.1H126L153.4 175.2V338.1H215V310.333Z"/>
</mask>
<path fill-rule="evenodd" clip-rule="evenodd" d="M215 310.333L214.9 311V0.200001H137.4L109.5 174.8L82.3 0.200001H4.8V338.1H65.8V175.2L93.6 338.1H126L153.4 175.2V338.1H215V310.333Z" fill="white"/>
<path d="M215 310.333H216L214.011 310.185L215 310.333ZM214.9 311H213.9L215.889 311.148L214.9 311ZM214.9 0.200001H215.9V-0.799999H214.9V0.200001ZM137.4 0.200001V-0.799999H136.547L136.413 0.0422088L137.4 0.200001ZM109.5 174.8L108.512 174.954L110.487 174.958L109.5 174.8ZM82.3 0.200001L83.2881 0.0460728L83.1563 -0.799999H82.3V0.200001ZM4.8 0.200001V-0.799999H3.8V0.200001H4.8ZM4.8 338.1H3.8V339.1H4.8V338.1ZM65.8 338.1V339.1H66.8V338.1H65.8ZM65.8 175.2L66.7858 175.032L64.8 175.2H65.8ZM93.6 338.1L92.6143 338.268L92.7562 339.1H93.6V338.1ZM126 338.1V339.1H126.846L126.986 338.266L126 338.1ZM153.4 175.2H154.4L152.414 175.034L153.4 175.2ZM153.4 338.1H152.4V339.1H153.4V338.1ZM215 338.1V339.1H216V338.1H215ZM214.011 310.185L213.911 310.852L215.889 311.148L215.989 310.481L214.011 310.185ZM215.9 311V0.200001H213.9V311H215.9ZM214.9 -0.799999H137.4V1.2H214.9V-0.799999ZM136.413 0.0422088L108.513 174.642L110.487 174.958L138.387 0.357793L136.413 0.0422088ZM110.488 174.646L83.2881 0.0460728L81.3119 0.353929L108.512 174.954L110.488 174.646ZM82.3 -0.799999H4.8V1.2H82.3V-0.799999ZM3.8 0.200001V338.1H5.8V0.200001H3.8ZM4.8 339.1H65.8V337.1H4.8V339.1ZM66.8 338.1V175.2H64.8V338.1H66.8ZM64.8143 175.368L92.6143 338.268L94.5858 337.932L66.7858 175.032L64.8143 175.368ZM93.6 339.1H126V337.1H93.6V339.1ZM126.986 338.266L154.386 175.366L152.414 175.034L125.014 337.934L126.986 338.266ZM152.4 175.2V338.1H154.4V175.2H152.4ZM153.4 339.1H215V337.1H153.4V339.1ZM216 338.1V310.333H214V338.1H216Z" fill="black" mask="url(#path-1-inside-1_7_20)"/>
</g>
<defs>
<filter id="filter0_d_7_20" x="0.799988" y="0.200012" width="218.2" height="345.9" filterUnits="userSpaceOnUse" color-interpolation-filters="sRGB">
<feFlood flood-opacity="0" result="BackgroundImageFix"/>
<feColorMatrix in="SourceAlpha" type="matrix" values="0 0 0 0 0 0 0 0 0 0 0 0 0 0 0 0 0 0 127 0" result="hardAlpha"/>
<feOffset dy="4"/>
<feGaussianBlur stdDeviation="2"/>
<feComposite in2="hardAlpha" operator="out"/>
<feColorMatrix type="matrix" values="0 0 0 0 0 0 0 0 0 0 0 0 0 0 0 0 0 0 0.25 0"/>
<feBlend mode="normal" in2="BackgroundImageFix" result="effect1_dropShadow_7_20"/>
<feBlend mode="normal" in="SourceGraphic" in2="effect1_dropShadow_7_20" result="shape"/>
</filter>
</defs>
</svg>
